<mxfile host="app.diagrams.net" modified="2023-12-18T21:32:40.272Z" agent="Mozilla/5.0 (Macintosh; Intel Mac OS X 10_15_7) AppleWebKit/537.36 (KHTML, like Gecko) Chrome/121.0.0.0 Safari/537.36" etag="pitY1s7VvYUJhVWnKqzy" version="22.1.11" type="github">
  <diagram name="Page-1" id="4obYDU1OZgabSgTtTAq6">
    <mxGraphModel dx="931" dy="1108" grid="1" gridSize="10" guides="1" tooltips="1" connect="1" arrows="1" fold="1" page="1" pageScale="1" pageWidth="1169" pageHeight="827" math="0" shadow="0">
      <root>
        <mxCell id="0" />
        <mxCell id="1" parent="0" />
        <mxCell id="N46nMGvIPB91Rdz7nyyX-7" value="" style="rounded=0;whiteSpace=wrap;html=1;" vertex="1" parent="1">
          <mxGeometry x="30" y="50" width="370" height="750" as="geometry" />
        </mxCell>
        <mxCell id="N46nMGvIPB91Rdz7nyyX-8" value="" style="rounded=0;whiteSpace=wrap;html=1;" vertex="1" parent="1">
          <mxGeometry x="30" y="50" width="370" height="70" as="geometry" />
        </mxCell>
        <mxCell id="N46nMGvIPB91Rdz7nyyX-9" value="" style="ellipse;whiteSpace=wrap;html=1;aspect=fixed;" vertex="1" parent="1">
          <mxGeometry x="50" y="65" width="40" height="40" as="geometry" />
        </mxCell>
        <mxCell id="N46nMGvIPB91Rdz7nyyX-10" value="" style="rounded=1;whiteSpace=wrap;html=1;" vertex="1" parent="1">
          <mxGeometry x="290" y="65" width="100" height="40" as="geometry" />
        </mxCell>
        <mxCell id="N46nMGvIPB91Rdz7nyyX-11" value="&lt;h1&gt;Heading&lt;/h1&gt;&lt;p&gt;Lorem ipsum dolor sit amet, consectetur adipisicing elit, sed do eiusmod tempor incididunt ut labore et dolore magna aliqua.&lt;/p&gt;" style="text;html=1;strokeColor=none;fillColor=none;spacing=5;spacingTop=-20;whiteSpace=wrap;overflow=hidden;rounded=0;" vertex="1" parent="1">
          <mxGeometry x="120" y="230" width="190" height="120" as="geometry" />
        </mxCell>
        <mxCell id="N46nMGvIPB91Rdz7nyyX-12" value="" style="verticalLabelPosition=bottom;verticalAlign=top;html=1;shape=mxgraph.basic.8_point_star" vertex="1" parent="1">
          <mxGeometry x="165" y="460" width="100" height="100" as="geometry" />
        </mxCell>
      </root>
    </mxGraphModel>
  </diagram>
</mxfile>
